<svg xmlns="http://www.w3.org/2000/svg" viewBox="0,0 1320.67,156.67" height="35px"><g><path d="M24.35 107.88c.91 1.56 2.07 2.85 3.5 3.85a14.83 14.83 0 0 0 4.92 2.22c1.87.48 3.8.7 5.8.7 1.45 0 2.93-.15 4.5-.49 1.58-.32 3.01-.86 4.28-1.57a9.43 9.43 0 0 0 3.21-2.85c.88-1.2 1.3-2.7 1.3-4.5 0-3.09-2.01-5.33-6.05-6.87-4.08-1.52-9.71-3.04-16.96-4.57a98.39 98.39 0 0 1-8.64-2.36c-2.8-.9-5.32-2.08-7.5-3.57a17.7 17.7 0 0 1-5.29-5.56c-1.34-2.26-2.01-4.99-2.01-8.24 0-4.75.94-8.66 2.8-11.7a20.58 20.58 0 0 1 7.36-7.23 32.95 32.95 0 0 1 10.28-3.72c3.84-.7 7.72-1.08 11.72-1.08s7.9.4 11.66 1.13c3.76.79 7.11 2.1 10.08 3.86a23.52 23.52 0 0 1 7.34 7.25c1.96 3.01 3.12 6.78 3.52 11.35h-19.3c-.3-3.9-1.77-6.56-4.43-7.92A20.34 20.34 0 0 0 37 63.92c-1.14 0-2.38.08-3.71.22a12.5 12.5 0 0 0-3.65.94 7.43 7.43 0 0 0-2.79 2.06 5.58 5.58 0 0 0-1.14 3.66c0 1.79.67 3.27 2.02 4.42A14.87 14.87 0 0 0 32.95 78a63.3 63.3 0 0 0 7.34 1.94c2.77.57 5.58 1.2 8.42 1.85 2.97.66 5.85 1.5 8.66 2.43 2.81.95 5.3 2.23 7.52 3.8a19.04 19.04 0 0 1 5.29 5.85c1.3 2.34 1.98 5.23 1.98 8.65 0 4.86-.97 8.95-2.93 12.23a23.07 23.07 0 0 1-7.64 7.91 31.29 31.29 0 0 1-10.8 4.23 62.87 62.87 0 0 1-24.93-.08 32.71 32.71 0 0 1-10.93-4.3c-3.2-1.99-5.82-4.62-7.87-7.93-2.04-3.27-3.14-7.4-3.35-12.39H23c0 2.25.45 4.1 1.35 5.7M122.81 110.96a16.37 16.37 0 0 0 5.42-5.23 21.36 21.36 0 0 0 2.94-7.48c.56-2.87.85-5.77.85-8.74 0-2.94-.31-5.86-.91-8.72a23.5 23.5 0 0 0-3.09-7.66 17.18 17.18 0 0 0-5.5-5.42c-2.23-1.39-4.98-2.07-8.22-2.07-3.33 0-6.13.68-8.35 2.07a16.88 16.88 0 0 0-5.45 5.38 22.41 22.41 0 0 0-2.92 7.55 45.73 45.73 0 0 0-.84 8.87c0 2.97.3 5.87.91 8.74a22.89 22.89 0 0 0 3.01 7.48 16.31 16.31 0 0 0 5.5 5.23c2.27 1.32 5.05 1.99 8.3 1.99 3.32 0 6.11-.67 8.36-1.99m-26.37-58.6v9.42h.29c2.46-3.99 5.61-6.9 9.42-8.7a28.8 28.8 0 0 1 12.57-2.72c5.82 0 10.83 1.06 15.02 3.3a30.78 30.78 0 0 1 10.44 8.72c2.74 3.6 4.8 7.8 6.14 12.63a57.06 57.06 0 0 1 2 15.08c0 4.95-.68 9.71-2 14.28a36.47 36.47 0 0 1-6.1 12.16 29.99 29.99 0 0 1-10.14 8.43c-4.05 2.08-8.79 3.14-14.21 3.14-4.56 0-8.8-.92-12.65-2.78a23.88 23.88 0 0 1-9.5-8.22h-.28v35H77.16V52.36h19.29zM176.33 52.36v13.7h.29a25.37 25.37 0 0 1 9.43-11.34 27.87 27.87 0 0 1 6.73-3.25 25.08 25.08 0 0 1 7.4-1.12 16 16 0 0 1 4.44.74v18.84a38.9 38.9 0 0 0-7.29-.71c-3.7 0-6.86.61-9.43 1.86a16.12 16.12 0 0 0-6.22 5.07 20.13 20.13 0 0 0-3.35 7.5c-.68 2.86-1 5.95-1 9.3v33.28h-20.3V52.36h19.3zM255.94 52.36v10.27h.4a23.5 23.5 0 0 1 10-9.35 28.89 28.89 0 0 1 12.58-2.93c5.44 0 9.89.75 13.36 2.23a20.06 20.06 0 0 1 8.23 6.14c1.98 2.6 3.4 5.8 4.2 9.57a60.1 60.1 0 0 1 1.23 12.5v45.44h-20.3v-41.7c0-6.1-.96-10.67-2.85-13.67-1.91-3.01-5.3-4.5-10.14-4.5-5.54 0-9.54 1.64-12.02 4.93-2.48 3.28-3.71 8.7-3.71 16.22v38.73h-20.29V52.36h19.3zM355.38 107.09c2.2-1.13 4-2.65 5.43-4.57a21.53 21.53 0 0 0 3.22-6.48c.7-2.46 1.06-5.01 1.06-7.66 0-3.08-.28-5.95-.85-8.65a21.78 21.78 0 0 0-2.86-7.25 14.87 14.87 0 0 0-5.3-4.97c-2.18-1.24-4.94-1.87-8.27-1.87-2.87 0-5.33.58-7.37 1.71a15.43 15.43 0 0 0-5.13 4.65 19.14 19.14 0 0 0-3 6.72 32.42 32.42 0 0 0-.94 7.94c0 2.68.27 5.3.79 7.93a20.99 20.99 0 0 0 2.71 7.06 15.69 15.69 0 0 0 5.07 5.16c2.1 1.33 4.72 1.99 7.87 1.99 2.85 0 5.37-.56 7.56-1.71m27.8 24.59a24.8 24.8 0 0 1-5.22 10.63c-2.67 3.28-6.53 6.06-11.56 8.36-5.06 2.3-11.82 3.43-20.32 3.43-3.6 0-7.3-.45-11.06-1.37a35.14 35.14 0 0 1-10.27-4.2 25.35 25.35 0 0 1-7.74-7.36 21.2 21.2 0 0 1-3.48-10.77h20.13c.96 3.8 2.81 6.44 5.58 7.92a19.98 19.98 0 0 0 9.57 2.22c5.71 0 9.87-1.72 12.5-5.13 2.63-3.45 3.9-7.78 3.79-13.03v-9.7h-.28a20.26 20.26 0 0 1-9.35 8.64 30.48 30.48 0 0 1-12.8 2.77c-5.52 0-10.28-.96-14.29-2.93a26.96 26.96 0 0 1-9.88-7.98 33.86 33.86 0 0 1-5.63-11.84 56.98 56.98 0 0 1-1.8-14.4c0-4.77.71-9.38 2.08-13.8a35.73 35.73 0 0 1 6.09-11.7 29.24 29.24 0 0 1 9.91-8.1c3.96-1.99 8.51-2.98 13.65-2.98 4.87 0 9.12.9 12.8 2.73 3.66 1.78 6.74 4.84 9.22 9.12h.28v-9.85h19.3v69.15c0 2.97-.4 6.35-1.21 10.17M443.69 107.68a22.38 22.38 0 0 1-4.66 6.52 20.19 20.19 0 0 1-6.48 4.35c-2.43.97-5 1.51-7.76 1.51-4.2 0-7.95-.86-11.11-2.65a24.3 24.3 0 0 1-7.95-7.06 32.02 32.02 0 0 1-4.8-9.92 40.58 40.58 0 0 1 0-22.72 32.62 32.62 0 0 1 4.8-9.93 24.49 24.49 0 0 1 7.95-7.05 22.5 22.5 0 0 1 11.1-2.65c5.95 0 10.55 1.57 13.83 4.64 3.29 3.11 5.53 7.37 6.78 12.82h8.9c-1.06-8.36-4.32-14.63-9.7-18.74-5.4-4.1-11.96-6.18-19.8-6.18a33.78 33.78 0 0 0-14.7 3.1 31.83 31.83 0 0 0-10.78 8.27 36.94 36.94 0 0 0-6.65 12.2 48 48 0 0 0-2.25 14.9c0 5.23.74 10.18 2.25 14.85a36.26 36.26 0 0 0 6.65 12.2c2.9 3.43 6.5 6.19 10.78 8.25 4.27 1.99 9.17 3 14.7 3 8.25 0 15.02-2.5 20.3-7.41 5.27-4.91 8.54-11.76 9.71-20.62h-8.86a24.06 24.06 0 0 1-2.25 8.32M517.07 100.43a33.83 33.83 0 0 1-4.8 9.92 24.4 24.4 0 0 1-8 7.06c-3.17 1.79-6.9 2.65-11.11 2.65-4.24 0-7.94-.86-11.14-2.65a24.56 24.56 0 0 1-7.94-7.06 31.04 31.04 0 0 1-4.78-9.92 39.7 39.7 0 0 1 0-22.72 31.3 31.3 0 0 1 4.78-9.92c2.1-2.9 4.77-5.27 7.94-7.05 3.2-1.78 6.9-2.66 11.14-2.66 4.21 0 7.94.88 11.1 2.66a24.27 24.27 0 0 1 8.01 7.05 34.17 34.17 0 0 1 4.8 9.92 40.76 40.76 0 0 1 1.6 11.38c0 3.8-.52 7.62-1.6 11.34m1.6-38.44a31.94 31.94 0 0 0-10.78-8.27c-4.3-2.03-9.2-3.1-14.73-3.1a33.76 33.76 0 0 0-14.72 3.1 32.16 32.16 0 0 0-10.8 8.27 37.93 37.93 0 0 0-6.61 12.2 48.29 48.29 0 0 0-2.24 14.9c0 5.23.74 10.18 2.24 14.85a37.01 37.01 0 0 0 6.6 12.2c2.91 3.43 6.55 6.2 10.81 8.25 4.27 1.99 9.15 3 14.72 3 5.54 0 10.44-1.01 14.73-3a32.1 32.1 0 0 0 10.77-8.25 35.18 35.18 0 0 0 6.6-12.2 47.82 47.82 0 0 0 2.31-14.85c0-5.28-.79-10.23-2.3-14.9a36 36 0 0 0-6.6-12.2M612.38 50.62c-4.79 0-9.3 1.16-13.5 3.54-4.28 2.29-7.47 5.9-9.62 10.7-1.3-4.8-3.9-8.41-7.8-10.7a24.61 24.61 0 0 0-13.07-3.54c-5.92 0-10.78 1.22-14.56 3.76A27.77 27.77 0 0 0 544.61 65h-.44V52.76h-8.2v72.66h8.92V84.86c0-3.86.4-7.4 1.23-10.66a24.96 24.96 0 0 1 3.93-8.47 17.18 17.18 0 0 1 6.72-5.58c2.8-1.4 6.02-2.07 9.82-2.07 2.8 0 5.2.47 7.15 1.4 2 .95 3.57 2.22 4.7 3.87a16.33 16.33 0 0 1 2.59 5.8c.51 2.17.78 4.5.78 6.96v49.3h8.88V84.26c0-3.34.28-6.68.91-9.78a25.1 25.1 0 0 1 3.15-8.4 16.98 16.98 0 0 1 6.06-5.8c2.57-1.47 5.74-2.2 9.58-2.2 6.38 0 10.84 1.57 13.41 4.73 2.52 3.12 3.77 7.73 3.77 13.72v48.88h8.92V76.1c0-17-8.02-25.49-24.1-25.49M725 50.62c-4.83 0-9.32 1.16-13.54 3.54-4.24 2.29-7.42 5.9-9.6 10.7-1.28-4.8-3.92-8.41-7.8-10.7a24.74 24.74 0 0 0-13.08-3.54c-5.9 0-10.74 1.22-14.56 3.76A27.59 27.59 0 0 0 657.21 65h-.43V52.76h-8.19v72.66h8.9V84.86c0-3.86.4-7.4 1.24-10.66a26 26 0 0 1 3.89-8.47 17.53 17.53 0 0 1 6.75-5.58c2.8-1.4 6.02-2.07 9.8-2.07 2.83 0 5.23.47 7.2 1.4 1.96.95 3.53 2.22 4.68 3.87a16.31 16.31 0 0 1 2.58 5.8c.53 2.17.77 4.5.77 6.96v49.3h8.87V84.26c0-3.34.31-6.68.9-9.78.64-3.16 1.7-5.94 3.18-8.4a16.82 16.82 0 0 1 6.06-5.8c2.58-1.47 5.75-2.2 9.58-2.2 6.4 0 10.86 1.57 13.4 4.73 2.54 3.12 3.8 7.73 3.8 13.72v48.88h8.88V76.1c0-17-8.02-25.49-24.08-25.49M811.24 90.92c0 3.64-.43 7.24-1.29 10.73a29.03 29.03 0 0 1-3.93 9.4 21.31 21.31 0 0 1-6.77 6.59c-2.74 1.64-6.04 2.42-9.86 2.42-7.07 0-12.04-1.67-14.86-5.09-2.9-3.35-4.38-8.32-4.6-14.93v-47.3h-8.9v47.2c0 4.27.45 8.17 1.41 11.56a22.57 22.57 0 0 0 4.45 8.56 19.21 19.21 0 0 0 7.9 5.43c3.22 1.25 7.15 1.9 11.77 1.9a29.2 29.2 0 0 0 14.87-3.84 25.58 25.58 0 0 0 10.25-11.21h.25v13.07h8.16V52.75h-8.85v38.17zM885.34 58.14a19.45 19.45 0 0 0-8.23-5.51c-3.43-1.37-7.7-2-12.76-2-5.14 0-9.9 1.27-14.23 4.01-4.34 2.66-7.33 6.16-9.01 10.64h-.3V52.75h-8.88v72.66h8.88V82.99c.09-3.56.66-6.83 1.75-9.93a25.38 25.38 0 0 1 4.5-7.85c1.97-2.24 4.28-4 7.07-5.23a22.42 22.42 0 0 1 9.54-1.91c3.54 0 6.55.55 8.94 1.7a14.04 14.04 0 0 1 5.7 4.65 18.25 18.25 0 0 1 2.96 6.95 43 43 0 0 1 .85 8.68v45.36h8.87V78.6c0-4.27-.42-8.18-1.28-11.66a20.12 20.12 0 0 0-4.37-8.81M903.12 52.75h8.86v72.66h-8.86zM973.83 107.68a22.13 22.13 0 0 1-4.63 6.52 21.09 21.09 0 0 1-6.48 4.35 20.76 20.76 0 0 1-7.75 1.51c-4.23 0-7.95-.86-11.14-2.65a24.49 24.49 0 0 1-7.97-7.06 30.8 30.8 0 0 1-4.75-9.92 40 40 0 0 1 0-22.72 31.32 31.32 0 0 1 4.75-9.93c2.1-2.9 4.77-5.26 7.97-7.05a22.6 22.6 0 0 1 11.14-2.65c5.9 0 10.52 1.57 13.8 4.64 3.28 3.11 5.55 7.37 6.77 12.82h8.88c-1.03-8.36-4.25-14.63-9.65-18.74-5.45-4.1-12-6.18-19.8-6.18a33.85 33.85 0 0 0-14.72 3.1 31.9 31.9 0 0 0-10.79 8.27 35.8 35.8 0 0 0-6.6 12.2 47.53 47.53 0 0 0-2.31 14.9c0 5.23.78 10.18 2.3 14.85a35.18 35.18 0 0 0 6.61 12.2 32.3 32.3 0 0 0 10.79 8.25c4.26 1.99 9.17 3 14.72 3 8.27 0 15.02-2.5 20.3-7.41 5.23-4.91 8.5-11.76 9.71-20.62h-8.88a23.92 23.92 0 0 1-2.27 8.32M1039.1 97.25a21.54 21.54 0 0 1-7.55 16.8c-2.32 1.94-5 3.46-8.1 4.5a32.18 32.18 0 0 1-9.72 1.51 21 21 0 0 1-6.06-.94 15.97 15.97 0 0 1-5.22-2.93 14.25 14.25 0 0 1-3.57-4.5 12.68 12.68 0 0 1-1.37-6c0-3.58 1.06-6.32 3.19-8.2 2.1-1.94 4.8-3.44 8.1-4.49 3.3-1 6.9-1.79 10.92-2.28 3.99-.53 7.83-1.12 11.61-1.8 1.23-.2 2.65-.5 4.27-.98 1.58-.46 2.64-1.2 3.2-2.23h.3v11.55zm8.9 15.37V74c0-4.9-.83-8.84-2.41-11.92a18.85 18.85 0 0 0-6.23-7.1 24.55 24.55 0 0 0-8.58-3.52 53.4 53.4 0 0 0-21.14.48 27.02 27.02 0 0 0-9.11 4.42A20.71 20.71 0 0 0 994.4 64a30.36 30.36 0 0 0-2.68 10.97h8.9c.19-5.9 2.05-10.2 5.64-12.9 3.55-2.64 8.17-4 13.78-4 2.67 0 5.11.2 7.43.65 2.3.4 4.32 1.2 6.05 2.27 1.73 1.16 3.1 2.7 4.08 4.62 1 1.9 1.5 4.4 1.5 7.38 0 1.98-.27 3.57-.79 4.78a6.55 6.55 0 0 1-2.17 2.92 8.11 8.11 0 0 1-3.54 1.46c-1.41.28-3.06.5-4.93.7-4.8.58-9.5 1.17-14.15 1.78-4.65.63-8.84 1.69-12.55 3.16a21.73 21.73 0 0 0-8.94 6.54c-2.27 2.9-3.37 6.85-3.37 11.92 0 3.65.61 6.86 1.89 9.52 1.26 2.7 3 4.87 5.21 6.61 2.2 1.78 4.77 3 7.77 3.85 2.95.74 6.11 1.16 9.5 1.16 3.55 0 6.63-.32 9.25-1a25 25 0 0 0 6.88-2.77 24.4 24.4 0 0 0 5.49-4.59 65.36 65.36 0 0 0 4.87-6.27h.27c0 1.85.12 3.57.35 5.13.25 1.56.73 2.88 1.48 4.01a7.07 7.07 0 0 0 3.21 2.63c1.34.6 3.18.88 5.38.88 1.21 0 2.25-.06 3.06-.13.78-.1 1.7-.25 2.72-.44v-7.43c-.82.37-1.77.57-2.79.57-3.5 0-5.2-1.79-5.2-5.36M1075.02 30.86h-8.87v21.89h-12.69v7.46h12.69v49.69c-.1 6.24 1.02 10.46 3.38 12.78 2.36 2.27 6.48 3.45 12.42 3.45 1.27 0 2.61-.03 3.95-.13a39 39 0 0 1 3.93-.18v-7.43c-2.53.3-5.08.45-7.62.45-3.17-.17-5.2-1.13-6-2.79-.77-1.65-1.2-3.91-1.2-6.83V60.2h14.82v-7.46h-14.81v-21.9zM210.06 4.91h701.92v14.25H210.06zM1097.99 52.75h8.84v72.66h-8.84zM1173.75 100.43a32.77 32.77 0 0 1-4.79 9.92 25.02 25.02 0 0 1-7.95 7.06c-3.18 1.79-6.92 2.65-11.16 2.65-4.23 0-7.94-.86-11.14-2.65a24.85 24.85 0 0 1-7.95-7.06 31.38 31.38 0 0 1-4.77-9.92 40.96 40.96 0 0 1-1.65-11.35c0-3.84.58-7.62 1.65-11.37a31.65 31.65 0 0 1 4.77-9.92 24.7 24.7 0 0 1 7.95-7.05 22.5 22.5 0 0 1 11.14-2.66c4.24 0 7.98.88 11.16 2.66a24.87 24.87 0 0 1 7.95 7.05c2.1 2.95 3.7 6.24 4.79 9.92a41.76 41.76 0 0 1 1.61 11.38c0 3.8-.56 7.62-1.61 11.34m1.61-38.44a31.85 31.85 0 0 0-10.8-8.27 33.82 33.82 0 0 0-14.71-3.1 33.9 33.9 0 0 0-14.72 3.1 32.29 32.29 0 0 0-10.8 8.27 36.95 36.95 0 0 0-6.61 12.2 48.26 48.26 0 0 0-2.25 14.9c0 5.23.75 10.18 2.25 14.85 1.52 4.68 3.7 8.71 6.62 12.2a32.45 32.45 0 0 0 10.8 8.25c4.26 1.99 9.18 3 14.7 3 5.55 0 10.47-1.01 14.73-3a32 32 0 0 0 10.8-8.25 35.47 35.47 0 0 0 6.6-12.2 48.34 48.34 0 0 0 2.27-14.85c0-5.28-.77-10.23-2.27-14.9a36.3 36.3 0 0 0-6.6-12.2M1245.95 58.14a19.13 19.13 0 0 0-8.22-5.51c-3.41-1.37-7.67-2-12.76-2-5.19 0-9.94 1.27-14.25 4.01-4.29 2.66-7.33 6.16-9.02 10.64h-.29V52.75h-8.86v72.66h8.86V82.99c.12-3.56.73-6.83 1.76-9.93a24.63 24.63 0 0 1 4.51-7.85c1.95-2.24 4.27-4 7.1-5.23a22.22 22.22 0 0 1 9.5-1.91c3.58 0 6.52.55 8.93 1.7a13.76 13.76 0 0 1 5.71 4.65 18.52 18.52 0 0 1 2.96 6.95c.56 2.7.84 5.6.84 8.68v45.36h8.85V78.6c0-4.27-.39-8.18-1.21-11.66a21.05 21.05 0 0 0-4.41-8.81M1316.72 97.41a19.54 19.54 0 0 0-4.72-5.93 25.5 25.5 0 0 0-6.62-3.92 36.59 36.59 0 0 0-7.55-1.99L1286 82.85c-1.5-.37-3.17-.87-4.94-1.42a27.25 27.25 0 0 1-4.96-2.36 13.6 13.6 0 0 1-3.72-3.44 8.4 8.4 0 0 1-1.46-5.02c0-2.36.49-4.36 1.53-5.91a11.93 11.93 0 0 1 4.1-3.91 19.34 19.34 0 0 1 5.56-2.1c2.01-.42 4.02-.61 6-.61 2.52 0 4.9.28 7.2.9 2.21.62 4.23 1.58 5.97 2.9a14.48 14.48 0 0 1 4.17 4.98 17.11 17.11 0 0 1 1.67 7.14h8.83c-.15-3.94-.93-7.4-2.32-10.29a21.93 21.93 0 0 0-5.7-7.35 24.47 24.47 0 0 0-8.38-4.42 38.9 38.9 0 0 0-10.2-1.32c-3.2 0-6.42.3-9.62 1.13-3.24.68-6.21 1.93-8.81 3.5a18.84 18.84 0 0 0-6.42 6.31 17.63 17.63 0 0 0-2.48 9.5c0 3.07.53 5.69 1.54 7.8a15.72 15.72 0 0 0 4.32 5.35 24.2 24.2 0 0 0 6.39 3.64 62.9 62.9 0 0 0 8.04 2.64l11.42 2.5c1.99.48 3.92 1.06 5.82 1.74 1.96.65 3.68 1.46 5.18 2.47 1.49.96 2.7 2.17 3.57 3.66.9 1.5 1.36 3.21 1.36 5.4 0 2.54-.63 4.68-1.86 6.42a16.24 16.24 0 0 1-4.88 4.28c-2 1.16-4.15 1.95-6.45 2.44-2.3.42-4.52.66-6.66.66-5.96 0-10.89-1.49-14.89-4.58-4-3.03-6.2-7.55-6.56-13.55h-8.9c.8 8.9 3.81 15.4 9.12 19.42 5.29 4 12.23 6.04 20.77 6.04 3.4 0 6.86-.37 10.3-1.14a28.5 28.5 0 0 0 9.38-3.7 21.65 21.65 0 0 0 6.82-6.78c1.81-2.75 2.69-6.13 2.69-10.09 0-3.16-.64-5.94-1.82-8.27M210.06 52.34h20.29v73.89h-20.29z"/></g></svg>