<svg xmlns="http://www.w3.org/2000/svg" fill="white" width="27.668" height="25.405" viewBox="0 0 27.668 25.405"><path id="Path_34239" data-name="Path 34239" d="M523.539-232.072h-5.393v-17.259h5.393ZM520.7-251.49h-.039a2.994,2.994,0,0,1-3.217-2.991,3.025,3.025,0,0,1,3.294-3,3.008,3.008,0,0,1,3.252,2.992A3.018,3.018,0,0,1,520.7-251.49Zm24.412,19.418H539V-241c0-2.338-.955-3.933-3.06-3.933a3.089,3.089,0,0,0-2.92,2.114,3.977,3.977,0,0,0-.132,1.411v9.339h-6.058s.079-15.82,0-17.259h6.058v2.709c.358-1.184,2.293-2.875,5.384-2.875,3.832,0,6.843,2.483,6.843,7.828Z" transform="translate(-517.448 257.477)"/></svg>